<svg width="620" height="620" xmlns="http://www.w3.org/2000/svg" xmlns:xlink="http://www.w3.org/1999/xlink" xml:space="preserve" overflow="hidden"><g transform="translate(-284 -60)"><g><g><g><g><path d="M421.475 481.311 421.475 481.311C421.074 515.881 448.773 544.23 483.343 544.631 488.115 544.687 492.879 544.196 497.54 543.169 503.138 560.995 519.657 573.128 538.341 573.135 561.966 573.138 581.121 553.99 581.125 530.365 581.125 530.363 581.125 530.36 581.125 530.358L581.125 213.826C581.146 183.786 557.844 158.887 527.868 156.919 526.58 156.833 525.318 156.79 524.082 156.79 494.076 156.827 469.237 180.119 467.271 210.06 466.782 210.196 466.293 210.331 465.804 210.479 437.183 219.009 420.896 249.126 429.427 277.746 429.429 277.752 429.43 277.758 429.432 277.764 427.79 278.575 426.213 279.457 424.61 280.396 393.683 299.019 383.703 339.184 402.317 370.116 375.23 396.41 374.588 439.685 400.883 466.772 406.786 472.853 413.769 477.783 421.475 481.311ZM413.344 363.447C398.433 338.6 406.444 306.372 431.254 291.398 432.502 290.645 433.829 289.93 435.116 289.287L444.869 284.478 441.772 274.081C435.296 252.274 447.694 229.34 469.486 222.813 469.853 222.697 470.226 222.594 470.6 222.498L479.516 220.109 480.121 210.897C481.675 187.739 500.878 169.728 524.089 169.659 525.059 169.659 526.037 169.691 527.024 169.755 550.213 171.328 568.226 190.584 568.25 213.826L568.25 530.358C568.225 546.894 554.8 560.279 538.264 560.254 537.815 560.253 537.367 560.242 536.919 560.222 524.371 558.72 513.756 550.241 509.521 538.334L506.302 528.034 494.792 530.558C467.94 536.449 441.398 519.458 435.506 492.606 434.733 489.083 434.345 485.485 434.35 481.877L434.35 473.045 426.831 469.607C398.965 456.86 386.709 423.936 399.457 396.07 402.322 389.806 406.329 384.131 411.272 379.334L418.623 372.215Z" fill="#000000" fill-rule="nonzero" fill-opacity="1"/><path d="M636.751 571.056C659.235 578.195 683.249 565.757 690.388 543.273 690.399 543.238 690.41 543.204 690.421 543.169 694.827 544.136 699.325 544.623 703.837 544.624L703.907 544.624C738.451 544.535 766.433 516.556 766.525 482.013L766.525 481.304C800.856 465.628 815.978 425.091 800.303 390.76 796.766 383.017 791.815 376.002 785.702 370.077 786.655 368.507 787.537 366.893 788.348 365.236 804.289 332.854 790.969 293.68 758.594 277.725 758.742 277.236 758.884 276.746 759.012 276.251 766.742 247.404 749.623 217.752 720.776 210.022 720.767 210.02 720.757 210.018 720.748 210.015 718.775 180.075 693.923 156.794 663.918 156.777 632.421 156.77 606.882 182.297 606.875 213.794 606.875 213.805 606.875 213.815 606.875 213.826L606.875 530.358C606.913 548.981 618.996 565.44 636.751 571.056ZM619.75 213.82C619.733 189.458 639.467 169.696 663.828 169.679 687.07 169.662 706.336 187.682 707.873 210.871L708.478 220.077 717.394 222.459C739.37 228.366 752.42 250.944 746.569 272.935 746.466 273.309 746.363 273.682 746.247 274.056L743.144 284.478 752.897 289.287C778.87 302.116 789.56 333.548 776.793 359.552 776.149 360.839 775.428 362.185 774.668 363.414L769.396 372.176 775.711 378.304C797.263 399.39 798.759 433.581 779.13 456.469 774.094 462.006 767.986 466.463 761.175 469.569L753.644 473.006 753.644 481.858C753.69 509.344 731.446 531.664 703.96 531.711 700.34 531.716 696.731 531.328 693.195 530.551L681.705 528.034 678.486 538.205C675.517 546.451 669.628 553.321 661.935 557.518 646.9 564.316 629.201 557.638 622.404 542.604 620.663 538.755 619.759 534.582 619.75 530.358Z" fill="#000000" fill-rule="nonzero" fill-opacity="1"/><path d="M779.87 200.456C781.558 200.448 783.177 199.778 784.376 198.589L814.677 168.526C817.046 166.135 817.355 162.389 815.411 159.642 813.174 156.879 809.12 156.453 806.357 158.69 806.19 158.826 806.03 158.969 805.877 159.12L775.621 189.151C773.215 191.587 772.942 195.411 774.977 198.164 776.193 199.608 777.982 200.446 779.87 200.456Z" fill="#000000" fill-rule="nonzero" fill-opacity="1"/><path d="M815.212 277.628C815.904 281.116 819.293 283.381 822.78 282.688 823.216 282.601 823.642 282.47 824.05 282.296L867.594 263.781C870.679 262.443 872.356 259.082 871.572 255.812 870.523 252.415 866.918 250.512 863.521 251.561 863.311 251.626 863.104 251.702 862.901 251.788L819.261 270.315C816.439 271.585 814.791 274.563 815.212 277.628Z" fill="#000000" fill-rule="nonzero" fill-opacity="1"/><path d="M887.241 360.64 841.947 360.64C838.584 360.673 835.731 363.116 835.181 366.434 834.826 369.971 837.405 373.127 840.943 373.483 841.156 373.504 841.371 373.515 841.586 373.515L886.906 373.515C890.27 373.485 893.125 371.04 893.672 367.721 894.027 364.184 891.448 361.027 887.91 360.672 887.688 360.65 887.464 360.639 887.241 360.64Z" fill="#000000" fill-rule="nonzero" fill-opacity="1"/><path d="M877.578 473.882 840.395 457.144C837.154 455.684 833.342 457.128 831.882 460.369 831.788 460.577 831.705 460.79 831.634 461.007 830.798 464.244 832.397 467.615 835.432 469.015L872.531 485.72C875.77 487.187 879.584 485.751 881.051 482.511 881.239 482.096 881.383 481.661 881.479 481.214 881.938 478.178 880.353 475.198 877.578 473.882Z" fill="#000000" fill-rule="nonzero" fill-opacity="1"/><path d="M778.756 540.877C776.879 543.666 777.269 547.401 779.683 549.741L808.189 576.946C810.762 579.4 814.837 579.303 817.29 576.729 817.386 576.629 817.478 576.525 817.568 576.418 819.616 573.619 819.275 569.735 816.77 567.335L788.29 540.156C785.717 537.703 781.642 537.801 779.189 540.374 779.036 540.534 778.891 540.702 778.756 540.877Z" fill="#000000" fill-rule="nonzero" fill-opacity="1"/><path d="M692.494 420.174 696.408 423.167 700.315 420.174C702.356 418.616 750.232 381.639 750.212 349.561 749.733 335.34 739.954 323.13 726.181 319.556 714.675 317.064 702.827 321.949 696.421 331.826 690.021 321.937 678.163 317.049 666.654 319.556 652.879 323.127 643.096 335.339 642.616 349.561 642.616 381.645 690.472 418.616 692.494 420.174ZM669.628 332.083C670.633 331.841 671.664 331.718 672.698 331.716 679.387 331.716 685.683 336.989 690.665 346.889L696.363 358.194C696.363 358.252 696.446 358.252 696.472 358.194L702.15 346.889C707.899 335.489 715.34 330.216 723.201 332.083 731.133 334.347 736.796 341.338 737.363 349.567 737.363 368.957 710.686 395.042 696.433 406.829 682.181 395.055 655.504 368.989 655.504 349.535 656.077 341.328 661.721 334.355 669.628 332.083Z" fill="#000000" fill-rule="nonzero" fill-opacity="1"/></g></g></g></g></g></svg>